<?xml version="1.0" standalone="no"?>
<!DOCTYPE svg PUBLIC "-//W3C//DTD SVG 20010904//EN"
 "http://www.w3.org/TR/2001/REC-SVG-20010904/DTD/svg10.dtd">
<svg version="1.0" xmlns="http://www.w3.org/2000/svg"
 width="700.000000pt" height="700.000000pt" viewBox="0 0 700.000000 700.000000"
 preserveAspectRatio="xMidYMid meet">
<metadata>
Created by potrace 1.14, written by Peter Selinger 2001-2017
</metadata>
<g transform="translate(0.000000,700.000000) scale(0.100000,-0.100000)"
fill="#000000" stroke="none">
<path d="M3410 6010 l0 -330 430 0 430 0 1 -1007 c1 -1633 7 -2081 25 -2171
19 -96 78 -222 133 -284 77 -87 220 -166 340 -188 32 -6 287 -10 632 -10 l579
0 0 330 0 330 -477 0 c-284 0 -484 4 -493 10 -13 8 -15 224 -18 1830 l-2 1820
-790 0 -790 0 0 -330z"/>
<path d="M1875 5164 c-226 -26 -330 -52 -449 -109 -202 -99 -322 -249 -379
-473 -20 -79 -22 -111 -22 -352 0 -241 2 -273 23 -354 68 -269 212 -430 462
-516 122 -42 206 -52 465 -59 265 -7 281 -10 313 -58 15 -24 17 -55 17 -249 0
-210 -1 -224 -21 -251 -44 -59 -27 -58 -656 -61 l-578 -3 0 -329 0 -330 548 0
c302 0 587 5 637 10 433 49 699 266 772 630 18 90 25 407 13 565 -32 408 -249
655 -648 741 -51 11 -156 19 -307 23 -328 10 -325 7 -325 265 l0 155 31 36
c56 64 70 65 636 65 l503 0 0 330 0 330 -502 -1 c-277 -1 -516 -4 -533 -5z"/>
<path d="M1430 970 l0 -310 2070 0 2070 0 0 310 0 310 -2070 0 -2070 0 0 -310z"/>
</g>
</svg>
